solid OpenSCAD_Model
  facet normal -0.809016 -0.587787 0
    outer loop
      vertex -37.5099 -39 0
      vertex -38.5395 -37.5828 5
      vertex -38.5395 -37.5828 0
    endloop
  endfacet
  facet normal -0.809016 -0.587787 0
    outer loop
      vertex -38.5395 -37.5828 5
      vertex -37.5099 -39 0
      vertex -37.5099 -39 5
    endloop
  endfacet
  facet normal 1 -0 0
    outer loop
      vertex -40.2055 -39.8759 5
      vertex -40.2055 -38.1241 0
      vertex -40.2055 -38.1241 5
    endloop
  endfacet
  facet normal 1 0 0
    outer loop
      vertex -40.2055 -38.1241 0
      vertex -40.2055 -39.8759 5
      vertex -40.2055 -39.8759 0
    endloop
  endfacet
  facet normal 0.309017 -0.951057 0
    outer loop
      vertex -40.2055 -38.1241 0
      vertex -38.5395 -37.5828 5
      vertex -40.2055 -38.1241 5
    endloop
  endfacet
  facet normal 0.309017 -0.951057 0
    outer loop
      vertex -38.5395 -37.5828 5
      vertex -40.2055 -38.1241 0
      vertex -38.5395 -37.5828 0
    endloop
  endfacet
  facet normal 0.309017 0.951057 -0
    outer loop
      vertex -38.5395 -40.4172 0
      vertex -40.2055 -39.8759 5
      vertex -38.5395 -40.4172 5
    endloop
  endfacet
  facet normal 0.309017 0.951057 0
    outer loop
      vertex -40.2055 -39.8759 5
      vertex -38.5395 -40.4172 0
      vertex -40.2055 -39.8759 0
    endloop
  endfacet
  facet normal -0.809016 0.587787 0
    outer loop
      vertex -38.5395 -40.4172 0
      vertex -37.5099 -39 5
      vertex -37.5099 -39 0
    endloop
  endfacet
  facet normal -0.809016 0.587787 0
    outer loop
      vertex -37.5099 -39 5
      vertex -38.5395 -40.4172 0
      vertex -38.5395 -40.4172 5
    endloop
  endfacet
  facet normal -0.809016 -0.587787 0
    outer loop
      vertex -37.5099 39 0
      vertex -38.5395 40.4172 5
      vertex -38.5395 40.4172 0
    endloop
  endfacet
  facet normal -0.809016 -0.587787 0
    outer loop
      vertex -38.5395 40.4172 5
      vertex -37.5099 39 0
      vertex -37.5099 39 5
    endloop
  endfacet
  facet normal 1 -0 0
    outer loop
      vertex -40.2055 38.1241 5
      vertex -40.2055 39.8759 0
      vertex -40.2055 39.8759 5
    endloop
  endfacet
  facet normal 1 0 0
    outer loop
      vertex -40.2055 39.8759 0
      vertex -40.2055 38.1241 5
      vertex -40.2055 38.1241 0
    endloop
  endfacet
  facet normal 0.309017 -0.951057 0
    outer loop
      vertex -40.2055 39.8759 0
      vertex -38.5395 40.4172 5
      vertex -40.2055 39.8759 5
    endloop
  endfacet
  facet normal 0.309017 -0.951057 0
    outer loop
      vertex -38.5395 40.4172 5
      vertex -40.2055 39.8759 0
      vertex -38.5395 40.4172 0
    endloop
  endfacet
  facet normal 0.309017 0.951057 -0
    outer loop
      vertex -38.5395 37.5828 0
      vertex -40.2055 38.1241 5
      vertex -38.5395 37.5828 5
    endloop
  endfacet
  facet normal 0.309017 0.951057 0
    outer loop
      vertex -40.2055 38.1241 5
      vertex -38.5395 37.5828 0
      vertex -40.2055 38.1241 0
    endloop
  endfacet
  facet normal -0.809016 0.587787 0
    outer loop
      vertex -38.5395 37.5828 0
      vertex -37.5099 39 5
      vertex -37.5099 39 0
    endloop
  endfacet
  facet normal -0.809016 0.587787 0
    outer loop
      vertex -37.5099 39 5
      vertex -38.5395 37.5828 0
      vertex -38.5395 37.5828 5
    endloop
  endfacet
  facet normal -0.809016 -0.587786 0
    outer loop
      vertex -7.5099 39 2.5
      vertex -8.53953 40.4172 5
      vertex -8.53953 40.4172 2.5
    endloop
  endfacet
  facet normal -0.809016 -0.587786 0
    outer loop
      vertex -8.53953 40.4172 5
      vertex -7.5099 39 2.5
      vertex -7.5099 39 5
    endloop
  endfacet
  facet normal 1 -0 0
    outer loop
      vertex -10.2055 38.1241 5
      vertex -10.2055 39.8759 2.5
      vertex -10.2055 39.8759 5
    endloop
  endfacet
  facet normal 1 0 0
    outer loop
      vertex -10.2055 39.8759 2.5
      vertex -10.2055 38.1241 5
      vertex -10.2055 38.1241 2.5
    endloop
  endfacet
  facet normal 0.309017 -0.951057 0
    outer loop
      vertex -10.2055 39.8759 2.5
      vertex -8.53953 40.4172 5
      vertex -10.2055 39.8759 5
    endloop
  endfacet
  facet normal 0.309017 -0.951057 0
    outer loop
      vertex -8.53953 40.4172 5
      vertex -10.2055 39.8759 2.5
      vertex -8.53953 40.4172 2.5
    endloop
  endfacet
  facet normal 0.309017 0.951057 -0
    outer loop
      vertex -8.53953 37.5828 2.5
      vertex -10.2055 38.1241 5
      vertex -8.53953 37.5828 5
    endloop
  endfacet
  facet normal 0.309017 0.951057 0
    outer loop
      vertex -10.2055 38.1241 5
      vertex -8.53953 37.5828 2.5
      vertex -10.2055 38.1241 2.5
    endloop
  endfacet
  facet normal -0.809016 0.587786 0
    outer loop
      vertex -8.53953 37.5828 2.5
      vertex -7.5099 39 5
      vertex -7.5099 39 2.5
    endloop
  endfacet
  facet normal -0.809016 0.587786 0
    outer loop
      vertex -7.5099 39 5
      vertex -8.53953 37.5828 2.5
      vertex -8.53953 37.5828 5
    endloop
  endfacet
  facet normal -0.809016 -0.587786 0
    outer loop
      vertex -7.5099 -39 2.5
      vertex -8.53953 -37.5828 5
      vertex -8.53953 -37.5828 2.5
    endloop
  endfacet
  facet normal -0.809016 -0.587786 0
    outer loop
      vertex -8.53953 -37.5828 5
      vertex -7.5099 -39 2.5
      vertex -7.5099 -39 5
    endloop
  endfacet
  facet normal 1 -0 0
    outer loop
      vertex -10.2055 -39.8759 5
      vertex -10.2055 -38.1241 2.5
      vertex -10.2055 -38.1241 5
    endloop
  endfacet
  facet normal 1 0 0
    outer loop
      vertex -10.2055 -38.1241 2.5
      vertex -10.2055 -39.8759 5
      vertex -10.2055 -39.8759 2.5
    endloop
  endfacet
  facet normal 0.309017 -0.951057 0
    outer loop
      vertex -10.2055 -38.1241 2.5
      vertex -8.53953 -37.5828 5
      vertex -10.2055 -38.1241 5
    endloop
  endfacet
  facet normal 0.309017 -0.951057 0
    outer loop
      vertex -8.53953 -37.5828 5
      vertex -10.2055 -38.1241 2.5
      vertex -8.53953 -37.5828 2.5
    endloop
  endfacet
  facet normal 0.309017 0.951057 -0
    outer loop
      vertex -8.53953 -40.4172 2.5
      vertex -10.2055 -39.8759 5
      vertex -8.53953 -40.4172 5
    endloop
  endfacet
  facet normal 0.309017 0.951057 0
    outer loop
      vertex -10.2055 -39.8759 5
      vertex -8.53953 -40.4172 2.5
      vertex -10.2055 -39.8759 2.5
    endloop
  endfacet
  facet normal -0.809016 0.587786 0
    outer loop
      vertex -8.53953 -40.4172 2.5
      vertex -7.5099 -39 5
      vertex -7.5099 -39 2.5
    endloop
  endfacet
  facet normal -0.809016 0.587786 0
    outer loop
      vertex -7.5099 -39 5
      vertex -8.53953 -40.4172 2.5
      vertex -8.53953 -40.4172 5
    endloop
  endfacet
  facet normal -1 0 0
    outer loop
      vertex -45 45 0
      vertex -45 -45 5
      vertex -45 45 5
    endloop
  endfacet
  facet normal -1 0 0
    outer loop
      vertex -45 -50 0
      vertex -45 -45 5
      vertex -45 45 0
    endloop
  endfacet
  facet normal -1 0 0
    outer loop
      vertex -45 -50 20
      vertex -45 -45 5
      vertex -45 -50 0
    endloop
  endfacet
  facet normal -1 0 0
    outer loop
      vertex -45 -45 5
      vertex -45 -50 20
      vertex -45 -45 20
    endloop
  endfacet
  facet normal 0 0 1
    outer loop
      vertex -45 45 5
      vertex -34.2352 7.27691 5
      vertex -40.2055 38.1241 5
    endloop
  endfacet
  facet normal 0 0 1
    outer loop
      vertex -35 0 5
      vertex -38.5395 -37.5828 5
      vertex -37.5099 -39 5
    endloop
  endfacet
  facet normal 0 0 1
    outer loop
      vertex -34.2352 7.27691 5
      vertex -45 45 5
      vertex -35 0 5
    endloop
  endfacet
  facet normal 0 0 1
    outer loop
      vertex -35 0 5
      vertex -40.2055 -38.1241 5
      vertex -38.5395 -37.5828 5
    endloop
  endfacet
  facet normal 0 0 1
    outer loop
      vertex 0 45 5
      vertex -3.6585 34.8083 5
      vertex 0 34.8083 5
    endloop
  endfacet
  facet normal 0 0 1
    outer loop
      vertex 0 45 5
      vertex -7.5099 39 5
      vertex -3.6585 34.8083 5
    endloop
  endfacet
  facet normal 0 0 1
    outer loop
      vertex 0 45 5
      vertex -8.53953 40.4172 5
      vertex -7.5099 39 5
    endloop
  endfacet
  facet normal 0 0 1
    outer loop
      vertex 0 45 5
      vertex -10.2055 39.8759 5
      vertex -8.53953 40.4172 5
    endloop
  endfacet
  facet normal 0 0 1
    outer loop
      vertex -17.5 30.3109 5
      vertex -10.2055 38.1241 5
      vertex -10.2055 39.8759 5
    endloop
  endfacet
  facet normal 0 0 1
    outer loop
      vertex -10.2055 38.1241 5
      vertex -17.5 30.3109 5
      vertex -10.8156 33.287 5
    endloop
  endfacet
  facet normal -0 0 1
    outer loop
      vertex -37.5099 39 5
      vertex -17.5 30.3109 5
      vertex -10.2055 39.8759 5
    endloop
  endfacet
  facet normal 0 0 1
    outer loop
      vertex -40.2055 38.1241 5
      vertex -31.9741 14.2358 5
      vertex -38.5395 37.5828 5
    endloop
  endfacet
  facet normal 0 0 1
    outer loop
      vertex -28.3156 20.5725 5
      vertex -38.5395 37.5828 5
      vertex -31.9741 14.2358 5
    endloop
  endfacet
  facet normal 0 0 1
    outer loop
      vertex -23.4196 26.0101 5
      vertex -38.5395 37.5828 5
      vertex -28.3156 20.5725 5
    endloop
  endfacet
  facet normal -0 0 1
    outer loop
      vertex -38.5395 37.5828 5
      vertex -23.4196 26.0101 5
      vertex -37.5099 39 5
    endloop
  endfacet
  facet normal 0 0 1
    outer loop
      vertex -17.5 30.3109 5
      vertex -37.5099 39 5
      vertex -23.4196 26.0101 5
    endloop
  endfacet
  facet normal -0 0 1
    outer loop
      vertex -45 45 5
      vertex -10.2055 39.8759 5
      vertex 0 45 5
    endloop
  endfacet
  facet normal 0 0 1
    outer loop
      vertex -10.2055 39.8759 5
      vertex -38.5395 40.4172 5
      vertex -37.5099 39 5
    endloop
  endfacet
  facet normal 0 0 1
    outer loop
      vertex -45 45 5
      vertex -40.2055 38.1241 5
      vertex -40.2055 39.8759 5
    endloop
  endfacet
  facet normal 0 0 1
    outer loop
      vertex -45 -45 5
      vertex -35 0 5
      vertex -45 45 5
    endloop
  endfacet
  facet normal 0 0 1
    outer loop
      vertex -35 0 5
      vertex -45 -45 5
      vertex -40.2055 -38.1241 5
    endloop
  endfacet
  facet normal 0 0 1
    outer loop
      vertex -38.5395 40.4172 5
      vertex -45 45 5
      vertex -40.2055 39.8759 5
    endloop
  endfacet
  facet normal 0 0 1
    outer loop
      vertex -10.2055 39.8759 5
      vertex -45 45 5
      vertex -38.5395 40.4172 5
    endloop
  endfacet
  facet normal -0 0 1
    outer loop
      vertex -8.53953 37.5828 5
      vertex -3.6585 34.8083 5
      vertex -7.5099 39 5
    endloop
  endfacet
  facet normal 0 0 1
    outer loop
      vertex -10.8156 33.287 5
      vertex -8.53953 37.5828 5
      vertex -10.2055 38.1241 5
    endloop
  endfacet
  facet normal 0 0 1
    outer loop
      vertex -8.53953 37.5828 5
      vertex -10.8156 33.287 5
      vertex -3.6585 34.8083 5
    endloop
  endfacet
  facet normal 0 0 1
    outer loop
      vertex -3.6585 -34.8083 5
      vertex -8.53953 -37.5828 5
      vertex -7.5099 -39 5
    endloop
  endfacet
  facet normal 0 0 1
    outer loop
      vertex -10.8156 -33.287 5
      vertex -8.53953 -37.5828 5
      vertex -3.6585 -34.8083 5
    endloop
  endfacet
  facet normal 0 0 1
    outer loop
      vertex -17.5 -30.3109 5
      vertex -10.2055 -38.1241 5
      vertex -10.8156 -33.287 5
    endloop
  endfacet
  facet normal 0 0 1
    outer loop
      vertex -8.53953 -37.5828 5
      vertex -10.8156 -33.287 5
      vertex -10.2055 -38.1241 5
    endloop
  endfacet
  facet normal -0 0 1
    outer loop
      vertex -3.6585 -34.8083 5
      vertex 0 -45 5
      vertex 0 -34.8083 5
    endloop
  endfacet
  facet normal -0 0 1
    outer loop
      vertex -7.5099 -39 5
      vertex 0 -45 5
      vertex -3.6585 -34.8083 5
    endloop
  endfacet
  facet normal -0 0 1
    outer loop
      vertex -8.53953 -40.4172 5
      vertex 0 -45 5
      vertex -7.5099 -39 5
    endloop
  endfacet
  facet normal 0 0 1
    outer loop
      vertex -10.2055 -39.8759 5
      vertex 0 -45 5
      vertex -8.53953 -40.4172 5
    endloop
  endfacet
  facet normal 0 0 1
    outer loop
      vertex -10.2055 -38.1241 5
      vertex -17.5 -30.3109 5
      vertex -10.2055 -39.8759 5
    endloop
  endfacet
  facet normal 0 0 1
    outer loop
      vertex -37.5099 -39 5
      vertex -17.5 -30.3109 5
      vertex -23.4196 -26.0101 5
    endloop
  endfacet
  facet normal 0 0 1
    outer loop
      vertex -31.9741 14.2358 5
      vertex -40.2055 38.1241 5
      vertex -34.2352 7.27691 5
    endloop
  endfacet
  facet normal 0 0 1
    outer loop
      vertex -37.5099 -39 5
      vertex -34.2352 -7.27691 5
      vertex -35 0 5
    endloop
  endfacet
  facet normal 0 0 1
    outer loop
      vertex -37.5099 -39 5
      vertex -31.9741 -14.2358 5
      vertex -34.2352 -7.27691 5
    endloop
  endfacet
  facet normal 0 0 1
    outer loop
      vertex -37.5099 -39 5
      vertex -28.3156 -20.5725 5
      vertex -31.9741 -14.2358 5
    endloop
  endfacet
  facet normal 0 0 1
    outer loop
      vertex -37.5099 -39 5
      vertex -23.4196 -26.0101 5
      vertex -28.3156 -20.5725 5
    endloop
  endfacet
  facet normal 0 0 1
    outer loop
      vertex -17.5 -30.3109 5
      vertex -37.5099 -39 5
      vertex -10.2055 -39.8759 5
    endloop
  endfacet
  facet normal 0 0 1
    outer loop
      vertex -38.5395 -40.4172 5
      vertex -10.2055 -39.8759 5
      vertex -37.5099 -39 5
    endloop
  endfacet
  facet normal 0 0 1
    outer loop
      vertex -45 -45 5
      vertex -10.2055 -39.8759 5
      vertex -38.5395 -40.4172 5
    endloop
  endfacet
  facet normal 0 0 1
    outer loop
      vertex -10.2055 -39.8759 5
      vertex -45 -45 5
      vertex 0 -45 5
    endloop
  endfacet
  facet normal 0 0 1
    outer loop
      vertex -40.2055 -39.8759 5
      vertex -45 -45 5
      vertex -38.5395 -40.4172 5
    endloop
  endfacet
  facet normal 0 0 1
    outer loop
      vertex -40.2055 -38.1241 5
      vertex -45 -45 5
      vertex -40.2055 -39.8759 5
    endloop
  endfacet
  facet normal 0 1 0
    outer loop
      vertex -15 45 2.5
      vertex 0 45 5
      vertex 0 45 2.5
    endloop
  endfacet
  facet normal 0 1 0
    outer loop
      vertex 0 45 5
      vertex -15 45 2.5
      vertex -45 45 5
    endloop
  endfacet
  facet normal 0 1 0
    outer loop
      vertex -45 45 0
      vertex -15 45 2.5
      vertex -15 45 0
    endloop
  endfacet
  facet normal 0 1 0
    outer loop
      vertex -15 45 2.5
      vertex -45 45 0
      vertex -45 45 5
    endloop
  endfacet
  facet normal -0 0 -1
    outer loop
      vertex -34.2352 -7.27691 0
      vertex -40.2055 -38.1241 0
      vertex -35 0 0
    endloop
  endfacet
  facet normal 0 0 -1
    outer loop
      vertex -35 0 0
      vertex -38.5395 37.5828 0
      vertex -37.5099 39 0
    endloop
  endfacet
  facet normal 0 0 -1
    outer loop
      vertex -45 -50 0
      vertex -35 0 0
      vertex -40.2055 -38.1241 0
    endloop
  endfacet
  facet normal 0 0 -1
    outer loop
      vertex -35 0 0
      vertex -40.2055 38.1241 0
      vertex -38.5395 37.5828 0
    endloop
  endfacet
  facet normal 0 0 -1
    outer loop
      vertex -15 -50 0
      vertex -17.5 -30.3109 0
      vertex -15 -31.424 0
    endloop
  endfacet
  facet normal 0 0 -1
    outer loop
      vertex -37.5099 -39 0
      vertex -17.5 -30.3109 0
      vertex -15 -50 0
    endloop
  endfacet
  facet normal -0 0 -1
    outer loop
      vertex -17.5 -30.3109 0
      vertex -37.5099 -39 0
      vertex -23.4196 -26.0101 0
    endloop
  endfacet
  facet normal 0 0 -1
    outer loop
      vertex -38.5395 -37.5828 0
      vertex -23.4196 -26.0101 0
      vertex -37.5099 -39 0
    endloop
  endfacet
  facet normal 0 0 -1
    outer loop
      vertex -40.2055 -38.1241 0
      vertex -31.9741 -14.2358 0
      vertex -38.5395 -37.5828 0
    endloop
  endfacet
  facet normal -0 0 -1
    outer loop
      vertex -28.3156 -20.5725 0
      vertex -38.5395 -37.5828 0
      vertex -31.9741 -14.2358 0
    endloop
  endfacet
  facet normal -0 0 -1
    outer loop
      vertex -23.4196 -26.0101 0
      vertex -38.5395 -37.5828 0
      vertex -28.3156 -20.5725 0
    endloop
  endfacet
  facet normal 0 0 -1
    outer loop
      vertex -15 -50 0
      vertex -38.5395 -40.4172 0
      vertex -37.5099 -39 0
    endloop
  endfacet
  facet normal 0 0 -1
    outer loop
      vertex -45 -50 0
      vertex -38.5395 -40.4172 0
      vertex -15 -50 0
    endloop
  endfacet
  facet normal 0 0 -1
    outer loop
      vertex -45 -50 0
      vertex -40.2055 -38.1241 0
      vertex -40.2055 -39.8759 0
    endloop
  endfacet
  facet normal 0 0 -1
    outer loop
      vertex -35 0 0
      vertex -45 45 0
      vertex -40.2055 38.1241 0
    endloop
  endfacet
  facet normal -0 0 -1
    outer loop
      vertex -35 0 0
      vertex -45 -50 0
      vertex -45 45 0
    endloop
  endfacet
  facet normal -0 0 -1
    outer loop
      vertex -38.5395 -40.4172 0
      vertex -45 -50 0
      vertex -40.2055 -39.8759 0
    endloop
  endfacet
  facet normal 0 0 -1
    outer loop
      vertex -17.5 30.3109 0
      vertex -15 45 0
      vertex -15 31.424 0
    endloop
  endfacet
  facet normal 0 0 -1
    outer loop
      vertex -37.5099 39 0
      vertex -17.5 30.3109 0
      vertex -23.4196 26.0101 0
    endloop
  endfacet
  facet normal 0 0 -1
    outer loop
      vertex -37.5099 39 0
      vertex -23.4196 26.0101 0
      vertex -28.3156 20.5725 0
    endloop
  endfacet
  facet normal 0 0 -1
    outer loop
      vertex -37.5099 39 0
      vertex -28.3156 20.5725 0
      vertex -31.9741 14.2358 0
    endloop
  endfacet
  facet normal -0 0 -1
    outer loop
      vertex -31.9741 -14.2358 0
      vertex -40.2055 -38.1241 0
      vertex -34.2352 -7.27691 0
    endloop
  endfacet
  facet normal 0 0 -1
    outer loop
      vertex -37.5099 39 0
      vertex -34.2352 7.27691 0
      vertex -35 0 0
    endloop
  endfacet
  facet normal 0 0 -1
    outer loop
      vertex -37.5099 39 0
      vertex -31.9741 14.2358 0
      vertex -34.2352 7.27691 0
    endloop
  endfacet
  facet normal 0 0 -1
    outer loop
      vertex -17.5 30.3109 0
      vertex -37.5099 39 0
      vertex -15 45 0
    endloop
  endfacet
  facet normal 0 0 -1
    outer loop
      vertex -38.5395 40.4172 0
      vertex -15 45 0
      vertex -37.5099 39 0
    endloop
  endfacet
  facet normal 0 0 -1
    outer loop
      vertex -38.5395 40.4172 0
      vertex -45 45 0
      vertex -15 45 0
    endloop
  endfacet
  facet normal 0 0 -1
    outer loop
      vertex -40.2055 39.8759 0
      vertex -45 45 0
      vertex -38.5395 40.4172 0
    endloop
  endfacet
  facet normal 0 0 -1
    outer loop
      vertex -40.2055 38.1241 0
      vertex -45 45 0
      vertex -40.2055 39.8759 0
    endloop
  endfacet
  facet normal 0 1 -0
    outer loop
      vertex -12.0705 -45 11.5984
      vertex -35.7999 -45 12.5
      vertex -12.0705 -45 12.5
    endloop
  endfacet
  facet normal 0 1 0
    outer loop
      vertex -12.0705 -45 11.5984
      vertex -36.3079 -45 10.7699
      vertex -35.7999 -45 12.5
    endloop
  endfacet
  facet normal 0 1 0
    outer loop
      vertex -11.0956 -45 10.0815
      vertex -36.3079 -45 10.7699
      vertex -12.0705 -45 11.5984
    endloop
  endfacet
  facet normal 0 1 0
    outer loop
      vertex -11.0956 -45 10.0815
      vertex -37.6706 -45 9.58909
      vertex -36.3079 -45 10.7699
    endloop
  endfacet
  facet normal 0 1 0
    outer loop
      vertex -9.45542 -45 9.33247
      vertex -37.6706 -45 9.58909
      vertex -11.0956 -45 10.0815
    endloop
  endfacet
  facet normal 0 1 0
    outer loop
      vertex -45 -45 5
      vertex -37.6706 -45 9.58909
      vertex -9.45542 -45 9.33247
    endloop
  endfacet
  facet normal 0 1 -0
    outer loop
      vertex -12.0705 -45 12.5
      vertex -45 -45 20
      vertex -10.2055 -45 13.3759
    endloop
  endfacet
  facet normal 0 1 0
    outer loop
      vertex -12.0705 -45 12.5
      vertex -10.2055 -45 13.3759
      vertex -10.2055 -45 12.5
    endloop
  endfacet
  facet normal 0 1 -0
    outer loop
      vertex -35.7999 -45 12.5
      vertex -45 -45 20
      vertex -12.0705 -45 12.5
    endloop
  endfacet
  facet normal 0 1 0
    outer loop
      vertex -45 -45 20
      vertex -35.7999 -45 12.5
      vertex -38.5395 -45 13.9172
    endloop
  endfacet
  facet normal 0 1 0
    outer loop
      vertex -38.5395 -45 13.9172
      vertex -35.7999 -45 12.5
      vertex -37.5099 -45 12.5
    endloop
  endfacet
  facet normal 0 1 0
    outer loop
      vertex -10.2055 -45 13.3759
      vertex 0 -45 20
      vertex -8.53953 -45 13.9172
    endloop
  endfacet
  facet normal 0 1 0
    outer loop
      vertex 0 -45 20
      vertex -5.7999 -45 12.5
      vertex -8.53953 -45 13.9172
    endloop
  endfacet
  facet normal 0 1 -0
    outer loop
      vertex 0 -45 5
      vertex -5.7999 -45 12.5
      vertex 0 -45 20
    endloop
  endfacet
  facet normal 0 1 0
    outer loop
      vertex -45 -45 5
      vertex -9.45542 -45 9.33247
      vertex 0 -45 5
    endloop
  endfacet
  facet normal 0 1 0
    outer loop
      vertex -7.67063 -45 9.58909
      vertex 0 -45 5
      vertex -9.45542 -45 9.33247
    endloop
  endfacet
  facet normal 0 1 0
    outer loop
      vertex -6.30791 -45 10.7699
      vertex 0 -45 5
      vertex -7.67063 -45 9.58909
    endloop
  endfacet
  facet normal 0 1 0
    outer loop
      vertex -5.7999 -45 12.5
      vertex 0 -45 5
      vertex -6.30791 -45 10.7699
    endloop
  endfacet
  facet normal 0 1 0
    outer loop
      vertex 0 -45 20
      vertex -10.2055 -45 13.3759
      vertex -45 -45 20
    endloop
  endfacet
  facet normal 0 1 -0
    outer loop
      vertex -40.2055 -45 13.3759
      vertex -45 -45 20
      vertex -38.5395 -45 13.9172
    endloop
  endfacet
  facet normal 0 1 0
    outer loop
      vertex -42.0705 -45 12.5
      vertex -40.2055 -45 13.3759
      vertex -40.2055 -45 12.5
    endloop
  endfacet
  facet normal 0 1 0
    outer loop
      vertex -40.2055 -45 13.3759
      vertex -42.0705 -45 12.5
      vertex -45 -45 20
    endloop
  endfacet
  facet normal 0 1 0
    outer loop
      vertex -45 -45 5
      vertex -42.0705 -45 12.5
      vertex -42.0705 -45 11.5984
    endloop
  endfacet
  facet normal 0 1 0
    outer loop
      vertex -42.0705 -45 12.5
      vertex -45 -45 5
      vertex -45 -45 20
    endloop
  endfacet
  facet normal 0 1 0
    outer loop
      vertex -41.0956 -45 10.0815
      vertex -45 -45 5
      vertex -42.0705 -45 11.5984
    endloop
  endfacet
  facet normal 0 1 0
    outer loop
      vertex -39.4554 -45 9.33247
      vertex -45 -45 5
      vertex -41.0956 -45 10.0815
    endloop
  endfacet
  facet normal 0 1 0
    outer loop
      vertex -37.6706 -45 9.58909
      vertex -45 -45 5
      vertex -39.4554 -45 9.33247
    endloop
  endfacet
  facet normal 0 1 0
    outer loop
      vertex -8.53953 -45 13.9172
      vertex -5.7999 -45 12.5
      vertex -7.5099 -45 12.5
    endloop
  endfacet
  facet normal 0.994522 -0.104529 0
    outer loop
      vertex -35 0 5
      vertex -34.2352 7.27691 0
      vertex -34.2352 7.27691 5
    endloop
  endfacet
  facet normal 0.994522 -0.104529 0
    outer loop
      vertex -34.2352 7.27691 0
      vertex -35 0 5
      vertex -35 0 0
    endloop
  endfacet
  facet normal 0 -1 0
    outer loop
      vertex -3.6585 34.8083 2.5
      vertex 0 34.8083 5
      vertex -3.6585 34.8083 5
    endloop
  endfacet
  facet normal 0 -1 -0
    outer loop
      vertex 0 34.8083 5
      vertex -3.6585 34.8083 2.5
      vertex 0 34.8083 2.5
    endloop
  endfacet
  facet normal 0 1 -0
    outer loop
      vertex 0 -34.8083 2.5
      vertex -3.6585 -34.8083 5
      vertex 0 -34.8083 5
    endloop
  endfacet
  facet normal 0 1 0
    outer loop
      vertex -3.6585 -34.8083 5
      vertex 0 -34.8083 2.5
      vertex -3.6585 -34.8083 2.5
    endloop
  endfacet
  facet normal 0.743145 -0.669131 0
    outer loop
      vertex -28.3156 20.5725 5
      vertex -23.4196 26.0101 0
      vertex -23.4196 26.0101 5
    endloop
  endfacet
  facet normal 0.743145 -0.669131 0
    outer loop
      vertex -23.4196 26.0101 0
      vertex -28.3156 20.5725 5
      vertex -28.3156 20.5725 0
    endloop
  endfacet
  facet normal 0.406737 -0.913545 4.25776e-07
    outer loop
      vertex -17.5 30.3109 5
      vertex -15 31.424 2.5
      vertex -10.8156 33.287 5
    endloop
  endfacet
  facet normal 0.406737 -0.913545 0
    outer loop
      vertex -17.5 30.3109 0
      vertex -15 31.424 2.5
      vertex -17.5 30.3109 5
    endloop
  endfacet
  facet normal 0.406737 -0.913545 0
    outer loop
      vertex -15 31.424 2.5
      vertex -17.5 30.3109 0
      vertex -15 31.424 0
    endloop
  endfacet
  facet normal 0.406737 -0.913545 0
    outer loop
      vertex -10.8156 33.287 5
      vertex -15 31.424 2.5
      vertex -10.8156 33.287 2.5
    endloop
  endfacet
  facet normal 0.866025 -0.5 0
    outer loop
      vertex -31.9741 14.2358 5
      vertex -28.3156 20.5725 0
      vertex -28.3156 20.5725 5
    endloop
  endfacet
  facet normal 0.866025 -0.5 0
    outer loop
      vertex -28.3156 20.5725 0
      vertex -31.9741 14.2358 5
      vertex -31.9741 14.2358 0
    endloop
  endfacet
  facet normal 0.951057 -0.309017 0
    outer loop
      vertex -34.2352 7.27691 5
      vertex -31.9741 14.2358 0
      vertex -31.9741 14.2358 5
    endloop
  endfacet
  facet normal 0.951057 -0.309017 0
    outer loop
      vertex -31.9741 14.2358 0
      vertex -34.2352 7.27691 5
      vertex -34.2352 7.27691 0
    endloop
  endfacet
  facet normal 0.587785 -0.809017 0
    outer loop
      vertex -23.4196 26.0101 0
      vertex -17.5 30.3109 5
      vertex -23.4196 26.0101 5
    endloop
  endfacet
  facet normal 0.587785 -0.809017 0
    outer loop
      vertex -17.5 30.3109 5
      vertex -23.4196 26.0101 0
      vertex -17.5 30.3109 0
    endloop
  endfacet
  facet normal 0.207911 -0.978148 0
    outer loop
      vertex -10.8156 33.287 2.5
      vertex -3.6585 34.8083 5
      vertex -10.8156 33.287 5
    endloop
  endfacet
  facet normal 0.207911 -0.978148 0
    outer loop
      vertex -3.6585 34.8083 5
      vertex -10.8156 33.287 2.5
      vertex -3.6585 34.8083 2.5
    endloop
  endfacet
  facet normal 0.866025 0.5 0
    outer loop
      vertex -28.3156 -20.5725 5
      vertex -31.9741 -14.2358 0
      vertex -31.9741 -14.2358 5
    endloop
  endfacet
  facet normal 0.866025 0.5 0
    outer loop
      vertex -31.9741 -14.2358 0
      vertex -28.3156 -20.5725 5
      vertex -28.3156 -20.5725 0
    endloop
  endfacet
  facet normal 0.207911 0.978148 -0
    outer loop
      vertex -3.6585 -34.8083 2.5
      vertex -10.8156 -33.287 5
      vertex -3.6585 -34.8083 5
    endloop
  endfacet
  facet normal 0.207911 0.978148 0
    outer loop
      vertex -10.8156 -33.287 5
      vertex -3.6585 -34.8083 2.5
      vertex -10.8156 -33.287 2.5
    endloop
  endfacet
  facet normal 0.406737 0.913545 0
    outer loop
      vertex -15 -31.424 2.5
      vertex -10.8156 -33.287 5
      vertex -10.8156 -33.287 2.5
    endloop
  endfacet
  facet normal 0.406737 0.913545 4.25776e-07
    outer loop
      vertex -10.8156 -33.287 5
      vertex -15 -31.424 2.5
      vertex -17.5 -30.3109 5
    endloop
  endfacet
  facet normal 0.406737 0.913545 0
    outer loop
      vertex -17.5 -30.3109 0
      vertex -15 -31.424 2.5
      vertex -15 -31.424 0
    endloop
  endfacet
  facet normal 0.406737 0.913545 0
    outer loop
      vertex -15 -31.424 2.5
      vertex -17.5 -30.3109 0
      vertex -17.5 -30.3109 5
    endloop
  endfacet
  facet normal 0.743145 0.669131 0
    outer loop
      vertex -23.4196 -26.0101 5
      vertex -28.3156 -20.5725 0
      vertex -28.3156 -20.5725 5
    endloop
  endfacet
  facet normal 0.743145 0.669131 0
    outer loop
      vertex -28.3156 -20.5725 0
      vertex -23.4196 -26.0101 5
      vertex -23.4196 -26.0101 0
    endloop
  endfacet
  facet normal 0.951057 0.309017 0
    outer loop
      vertex -31.9741 -14.2358 5
      vertex -34.2352 -7.27691 0
      vertex -34.2352 -7.27691 5
    endloop
  endfacet
  facet normal 0.951057 0.309017 0
    outer loop
      vertex -34.2352 -7.27691 0
      vertex -31.9741 -14.2358 5
      vertex -31.9741 -14.2358 0
    endloop
  endfacet
  facet normal 0.994522 0.104529 0
    outer loop
      vertex -34.2352 -7.27691 5
      vertex -35 0 0
      vertex -35 0 5
    endloop
  endfacet
  facet normal 0.994522 0.104529 0
    outer loop
      vertex -35 0 0
      vertex -34.2352 -7.27691 5
      vertex -34.2352 -7.27691 0
    endloop
  endfacet
  facet normal 0.587785 0.809017 -0
    outer loop
      vertex -17.5 -30.3109 0
      vertex -23.4196 -26.0101 5
      vertex -17.5 -30.3109 5
    endloop
  endfacet
  facet normal 0.587785 0.809017 0
    outer loop
      vertex -23.4196 -26.0101 5
      vertex -17.5 -30.3109 0
      vertex -23.4196 -26.0101 0
    endloop
  endfacet
  facet normal -0 0 1
    outer loop
      vertex -45 -45 20
      vertex 0 -50 20
      vertex 0 -45 20
    endloop
  endfacet
  facet normal 0 0 1
    outer loop
      vertex 0 -50 20
      vertex -45 -45 20
      vertex -45 -50 20
    endloop
  endfacet
  facet normal 0 -1 0
    outer loop
      vertex 0 -50 20
      vertex -10.2055 -50 13.3759
      vertex -8.53953 -50 13.9172
    endloop
  endfacet
  facet normal 0 -1 0
    outer loop
      vertex -37.5099 -50 12.5
      vertex -10.2055 -50 13.3759
      vertex -38.5395 -50 13.9172
    endloop
  endfacet
  facet normal 0 -1 0
    outer loop
      vertex -15 -50 2.5
      vertex -10.2055 -50 13.3759
      vertex -37.5099 -50 12.5
    endloop
  endfacet
  facet normal 0 -1 0
    outer loop
      vertex -15 -50 2.5
      vertex -37.5099 -50 12.5
      vertex -38.5395 -50 11.0828
    endloop
  endfacet
  facet normal 0 -1 -0
    outer loop
      vertex -10.2055 -50 13.3759
      vertex -15 -50 2.5
      vertex -10.2055 -50 11.6241
    endloop
  endfacet
  facet normal 0 -1 0
    outer loop
      vertex -10.2055 -50 13.3759
      vertex -45 -50 20
      vertex -38.5395 -50 13.9172
    endloop
  endfacet
  facet normal 0 -1 0
    outer loop
      vertex -45 -50 20
      vertex -40.2055 -50 13.3759
      vertex -38.5395 -50 13.9172
    endloop
  endfacet
  facet normal 0 -1 0
    outer loop
      vertex -45 -50 20
      vertex -40.2055 -50 11.6241
      vertex -40.2055 -50 13.3759
    endloop
  endfacet
  facet normal 0 -1 -0
    outer loop
      vertex -10.2055 -50 11.6241
      vertex -15 -50 2.5
      vertex -8.53953 -50 11.0828
    endloop
  endfacet
  facet normal 0 -1 0
    outer loop
      vertex -45 -50 0
      vertex -38.5395 -50 11.0828
      vertex -40.2055 -50 11.6241
    endloop
  endfacet
  facet normal 0 -1 0
    outer loop
      vertex -45 -50 0
      vertex -40.2055 -50 11.6241
      vertex -45 -50 20
    endloop
  endfacet
  facet normal 0 -1 -0
    outer loop
      vertex -38.5395 -50 11.0828
      vertex -45 -50 0
      vertex -15 -50 0
    endloop
  endfacet
  facet normal 0 -1 0
    outer loop
      vertex -38.5395 -50 11.0828
      vertex -15 -50 0
      vertex -15 -50 2.5
    endloop
  endfacet
  facet normal 0 -1 0
    outer loop
      vertex -10.2055 -50 13.3759
      vertex 0 -50 20
      vertex -45 -50 20
    endloop
  endfacet
  facet normal 0 -1 0
    outer loop
      vertex -7.5099 -50 12.5
      vertex 0 -50 20
      vertex -8.53953 -50 13.9172
    endloop
  endfacet
  facet normal 0 -1 0
    outer loop
      vertex 0 -50 2.5
      vertex -7.5099 -50 12.5
      vertex -8.53953 -50 11.0828
    endloop
  endfacet
  facet normal 0 -1 0
    outer loop
      vertex 0 -50 2.5
      vertex -8.53953 -50 11.0828
      vertex -15 -50 2.5
    endloop
  endfacet
  facet normal 0 -1 0
    outer loop
      vertex -7.5099 -50 12.5
      vertex 0 -50 2.5
      vertex 0 -50 20
    endloop
  endfacet
  facet normal 0 1 -0
    outer loop
      vertex -36.3079 -45 10.7699
      vertex -37.5099 -45 12.5
      vertex -35.7999 -45 12.5
    endloop
  endfacet
  facet normal 0 1 0
    outer loop
      vertex -37.5099 -45 12.5
      vertex -36.3079 -45 10.7699
      vertex -38.5395 -45 11.0828
    endloop
  endfacet
  facet normal 0 1 -0
    outer loop
      vertex -40.2055 -45 11.6241
      vertex -42.0705 -45 12.5
      vertex -40.2055 -45 12.5
    endloop
  endfacet
  facet normal 0 1 0
    outer loop
      vertex -40.2055 -45 11.6241
      vertex -42.0705 -45 11.5984
      vertex -42.0705 -45 12.5
    endloop
  endfacet
  facet normal 0 1 -0
    outer loop
      vertex -39.4554 -45 9.33247
      vertex -40.2055 -45 11.6241
      vertex -38.5395 -45 11.0828
    endloop
  endfacet
  facet normal 0 1 0
    outer loop
      vertex -40.2055 -45 11.6241
      vertex -41.0956 -45 10.0815
      vertex -42.0705 -45 11.5984
    endloop
  endfacet
  facet normal 0 1 -0
    outer loop
      vertex -37.6706 -45 9.58909
      vertex -38.5395 -45 11.0828
      vertex -36.3079 -45 10.7699
    endloop
  endfacet
  facet normal 0 1 0
    outer loop
      vertex -39.4554 -45 9.33247
      vertex -38.5395 -45 11.0828
      vertex -37.6706 -45 9.58909
    endloop
  endfacet
  facet normal 0 1 0
    outer loop
      vertex -40.2055 -45 11.6241
      vertex -39.4554 -45 9.33247
      vertex -41.0956 -45 10.0815
    endloop
  endfacet
  facet normal -0.809016 0 -0.587786
    outer loop
      vertex -37.5099 -50 12.5
      vertex -38.5395 -45 13.9172
      vertex -37.5099 -45 12.5
    endloop
  endfacet
  facet normal -0.809016 -0 -0.587786
    outer loop
      vertex -38.5395 -45 13.9172
      vertex -37.5099 -50 12.5
      vertex -38.5395 -50 13.9172
    endloop
  endfacet
  facet normal 1 -0 0
    outer loop
      vertex -40.2055 -50 13.3759
      vertex -40.2055 -45 12.5
      vertex -40.2055 -45 13.3759
    endloop
  endfacet
  facet normal 1 0 0
    outer loop
      vertex -40.2055 -50 11.6241
      vertex -40.2055 -45 12.5
      vertex -40.2055 -50 13.3759
    endloop
  endfacet
  facet normal 1 0 0
    outer loop
      vertex -40.2055 -45 12.5
      vertex -40.2055 -50 11.6241
      vertex -40.2055 -45 11.6241
    endloop
  endfacet
  facet normal 0.309017 0 -0.951056
    outer loop
      vertex -40.2055 -50 13.3759
      vertex -38.5395 -45 13.9172
      vertex -38.5395 -50 13.9172
    endloop
  endfacet
  facet normal 0.309017 0 -0.951056
    outer loop
      vertex -38.5395 -45 13.9172
      vertex -40.2055 -50 13.3759
      vertex -40.2055 -45 13.3759
    endloop
  endfacet
  facet normal 0.309017 0 0.951056
    outer loop
      vertex -40.2055 -45 11.6241
      vertex -38.5395 -50 11.0828
      vertex -38.5395 -45 11.0828
    endloop
  endfacet
  facet normal 0.309017 0 0.951056
    outer loop
      vertex -38.5395 -50 11.0828
      vertex -40.2055 -45 11.6241
      vertex -40.2055 -50 11.6241
    endloop
  endfacet
  facet normal -0.809016 0 0.587786
    outer loop
      vertex -38.5395 -50 11.0828
      vertex -37.5099 -45 12.5
      vertex -38.5395 -45 11.0828
    endloop
  endfacet
  facet normal -0.809016 0 0.587786
    outer loop
      vertex -37.5099 -45 12.5
      vertex -38.5395 -50 11.0828
      vertex -37.5099 -50 12.5
    endloop
  endfacet
  facet normal 0 1 -0
    outer loop
      vertex -6.30791 -45 10.7699
      vertex -7.5099 -45 12.5
      vertex -5.7999 -45 12.5
    endloop
  endfacet
  facet normal 0 1 0
    outer loop
      vertex -7.5099 -45 12.5
      vertex -6.30791 -45 10.7699
      vertex -8.53953 -45 11.0828
    endloop
  endfacet
  facet normal 0 1 -0
    outer loop
      vertex -10.2055 -45 11.6241
      vertex -12.0705 -45 12.5
      vertex -10.2055 -45 12.5
    endloop
  endfacet
  facet normal 0 1 0
    outer loop
      vertex -10.2055 -45 11.6241
      vertex -12.0705 -45 11.5984
      vertex -12.0705 -45 12.5
    endloop
  endfacet
  facet normal 0 1 -0
    outer loop
      vertex -9.45542 -45 9.33247
      vertex -10.2055 -45 11.6241
      vertex -8.53953 -45 11.0828
    endloop
  endfacet
  facet normal 0 1 0
    outer loop
      vertex -10.2055 -45 11.6241
      vertex -11.0956 -45 10.0815
      vertex -12.0705 -45 11.5984
    endloop
  endfacet
  facet normal 0 1 -0
    outer loop
      vertex -7.67063 -45 9.58909
      vertex -8.53953 -45 11.0828
      vertex -6.30791 -45 10.7699
    endloop
  endfacet
  facet normal 0 1 0
    outer loop
      vertex -9.45542 -45 9.33247
      vertex -8.53953 -45 11.0828
      vertex -7.67063 -45 9.58909
    endloop
  endfacet
  facet normal 0 1 0
    outer loop
      vertex -10.2055 -45 11.6241
      vertex -9.45542 -45 9.33247
      vertex -11.0956 -45 10.0815
    endloop
  endfacet
  facet normal -0.809017 0 -0.587786
    outer loop
      vertex -7.5099 -50 12.5
      vertex -8.53953 -45 13.9172
      vertex -7.5099 -45 12.5
    endloop
  endfacet
  facet normal -0.809017 -0 -0.587786
    outer loop
      vertex -8.53953 -45 13.9172
      vertex -7.5099 -50 12.5
      vertex -8.53953 -50 13.9172
    endloop
  endfacet
  facet normal 1 -0 0
    outer loop
      vertex -10.2055 -50 13.3759
      vertex -10.2055 -45 12.5
      vertex -10.2055 -45 13.3759
    endloop
  endfacet
  facet normal 1 0 0
    outer loop
      vertex -10.2055 -50 11.6241
      vertex -10.2055 -45 12.5
      vertex -10.2055 -50 13.3759
    endloop
  endfacet
  facet normal 1 0 0
    outer loop
      vertex -10.2055 -45 12.5
      vertex -10.2055 -50 11.6241
      vertex -10.2055 -45 11.6241
    endloop
  endfacet
  facet normal 0.309017 0 -0.951056
    outer loop
      vertex -10.2055 -50 13.3759
      vertex -8.53953 -45 13.9172
      vertex -8.53953 -50 13.9172
    endloop
  endfacet
  facet normal 0.309017 0 -0.951056
    outer loop
      vertex -8.53953 -45 13.9172
      vertex -10.2055 -50 13.3759
      vertex -10.2055 -45 13.3759
    endloop
  endfacet
  facet normal 0.309017 0 0.951056
    outer loop
      vertex -10.2055 -45 11.6241
      vertex -8.53953 -50 11.0828
      vertex -8.53953 -45 11.0828
    endloop
  endfacet
  facet normal 0.309017 0 0.951056
    outer loop
      vertex -8.53953 -50 11.0828
      vertex -10.2055 -45 11.6241
      vertex -10.2055 -50 11.6241
    endloop
  endfacet
  facet normal -0.809017 0 0.587786
    outer loop
      vertex -8.53953 -50 11.0828
      vertex -7.5099 -45 12.5
      vertex -8.53953 -45 11.0828
    endloop
  endfacet
  facet normal -0.809017 0 0.587786
    outer loop
      vertex -7.5099 -45 12.5
      vertex -8.53953 -50 11.0828
      vertex -7.5099 -50 12.5
    endloop
  endfacet
  facet normal 1 -0 0
    outer loop
      vertex -15 31.424 2.5
      vertex -15 45 0
      vertex -15 45 2.5
    endloop
  endfacet
  facet normal 1 0 0
    outer loop
      vertex -15 45 0
      vertex -15 31.424 2.5
      vertex -15 31.424 0
    endloop
  endfacet
  facet normal 0 0 -1
    outer loop
      vertex -3.6585 34.8083 2.5
      vertex -8.53953 37.5828 2.5
      vertex -7.5099 39 2.5
    endloop
  endfacet
  facet normal 0 0 -1
    outer loop
      vertex -10.8156 33.287 2.5
      vertex -8.53953 37.5828 2.5
      vertex -3.6585 34.8083 2.5
    endloop
  endfacet
  facet normal 0 0 -1
    outer loop
      vertex -15 31.424 2.5
      vertex -10.2055 38.1241 2.5
      vertex -10.8156 33.287 2.5
    endloop
  endfacet
  facet normal -0 0 -1
    outer loop
      vertex -8.53953 37.5828 2.5
      vertex -10.8156 33.287 2.5
      vertex -10.2055 38.1241 2.5
    endloop
  endfacet
  facet normal 0 0 -1
    outer loop
      vertex -3.6585 34.8083 2.5
      vertex 0 45 2.5
      vertex 0 34.8083 2.5
    endloop
  endfacet
  facet normal 0 0 -1
    outer loop
      vertex -7.5099 39 2.5
      vertex 0 45 2.5
      vertex -3.6585 34.8083 2.5
    endloop
  endfacet
  facet normal 0 0 -1
    outer loop
      vertex -8.53953 40.4172 2.5
      vertex 0 45 2.5
      vertex -7.5099 39 2.5
    endloop
  endfacet
  facet normal 0 0 -1
    outer loop
      vertex -15 45 2.5
      vertex -8.53953 40.4172 2.5
      vertex -10.2055 39.8759 2.5
    endloop
  endfacet
  facet normal 0 0 -1
    outer loop
      vertex -15 45 2.5
      vertex -10.2055 38.1241 2.5
      vertex -15 31.424 2.5
    endloop
  endfacet
  facet normal 0 0 -1
    outer loop
      vertex -8.53953 40.4172 2.5
      vertex -15 45 2.5
      vertex 0 45 2.5
    endloop
  endfacet
  facet normal 0 0 -1
    outer loop
      vertex -10.2055 38.1241 2.5
      vertex -15 45 2.5
      vertex -10.2055 39.8759 2.5
    endloop
  endfacet
  facet normal 1 -0 0
    outer loop
      vertex -15 -50 2.5
      vertex -15 -31.424 0
      vertex -15 -31.424 2.5
    endloop
  endfacet
  facet normal 1 0 0
    outer loop
      vertex -15 -31.424 0
      vertex -15 -50 2.5
      vertex -15 -50 0
    endloop
  endfacet
  facet normal 0 0 -1
    outer loop
      vertex -7.5099 -39 2.5
      vertex 0 -34.8083 2.5
      vertex 0 -50 2.5
    endloop
  endfacet
  facet normal -0 0 -1
    outer loop
      vertex 0 -34.8083 2.5
      vertex -7.5099 -39 2.5
      vertex -3.6585 -34.8083 2.5
    endloop
  endfacet
  facet normal 0 0 -1
    outer loop
      vertex 0 -50 2.5
      vertex -8.53953 -40.4172 2.5
      vertex -7.5099 -39 2.5
    endloop
  endfacet
  facet normal 0 0 -1
    outer loop
      vertex -15 -50 2.5
      vertex -8.53953 -40.4172 2.5
      vertex 0 -50 2.5
    endloop
  endfacet
  facet normal 0 0 -1
    outer loop
      vertex -15 -31.424 2.5
      vertex -10.2055 -38.1241 2.5
      vertex -10.2055 -39.8759 2.5
    endloop
  endfacet
  facet normal -0 0 -1
    outer loop
      vertex -8.53953 -40.4172 2.5
      vertex -15 -50 2.5
      vertex -10.2055 -39.8759 2.5
    endloop
  endfacet
  facet normal 0 0 -1
    outer loop
      vertex -15 -31.424 2.5
      vertex -10.2055 -39.8759 2.5
      vertex -15 -50 2.5
    endloop
  endfacet
  facet normal 0 0 -1
    outer loop
      vertex -10.2055 -38.1241 2.5
      vertex -15 -31.424 2.5
      vertex -10.8156 -33.287 2.5
    endloop
  endfacet
  facet normal 0 0 -1
    outer loop
      vertex -8.53953 -37.5828 2.5
      vertex -3.6585 -34.8083 2.5
      vertex -7.5099 -39 2.5
    endloop
  endfacet
  facet normal 0 0 -1
    outer loop
      vertex -10.8156 -33.287 2.5
      vertex -8.53953 -37.5828 2.5
      vertex -10.2055 -38.1241 2.5
    endloop
  endfacet
  facet normal 0 0 -1
    outer loop
      vertex -8.53953 -37.5828 2.5
      vertex -10.8156 -33.287 2.5
      vertex -3.6585 -34.8083 2.5
    endloop
  endfacet
  facet normal 1 0 0
    outer loop
      vertex 0 -45 20
      vertex 0 -50 20
      vertex 0 -45 5
    endloop
  endfacet
  facet normal 1 -0 0
    outer loop
      vertex 0 -45 5
      vertex 0 -34.8083 2.5
      vertex 0 -34.8083 5
    endloop
  endfacet
  facet normal 1 0 0
    outer loop
      vertex 0 -45 5
      vertex 0 -50 2.5
      vertex 0 -34.8083 2.5
    endloop
  endfacet
  facet normal 1 0 0
    outer loop
      vertex 0 -50 2.5
      vertex 0 -45 5
      vertex 0 -50 20
    endloop
  endfacet
  facet normal 1 -0 0
    outer loop
      vertex 0 34.8083 5
      vertex 0 45 2.5
      vertex 0 45 5
    endloop
  endfacet
  facet normal 1 0 0
    outer loop
      vertex 0 45 2.5
      vertex 0 34.8083 5
      vertex 0 34.8083 2.5
    endloop
  endfacet
endsolid OpenSCAD_Model
